<svg width="60" height="60" viewBox="0 0 60 60" fill="none" xmlns="http://www.w3.org/2000/svg">
<path d="M43.3333 0H6.66667C3 0 0 3 0 6.66667V53.3333C0 57 3 60 6.66667 60H53.3333C57 60 60 57 60 53.3333V16.6667L43.3333 0ZM16.6667 13.3333H26.6667C28.5 13.3333 30 14.8333 30 16.6667C30 18.5 28.5 20 26.6667 20H16.6667C14.8333 20 13.3333 18.5 13.3333 16.6667C13.3333 14.8333 14.8333 13.3333 16.6667 13.3333ZM43.3333 46.6667H16.6667C14.8333 46.6667 13.3333 45.1667 13.3333 43.3333C13.3333 41.5 14.8333 40 16.6667 40H43.3333C45.1667 40 46.6667 41.5 46.6667 43.3333C46.6667 45.1667 45.1667 46.6667 43.3333 46.6667ZM43.3333 33.3333H16.6667C14.8333 33.3333 13.3333 31.8333 13.3333 30C13.3333 28.1667 14.8333 26.6667 16.6667 26.6667H43.3333C45.1667 26.6667 46.6667 28.1667 46.6667 30C46.6667 31.8333 45.1667 33.3333 43.3333 33.3333ZM40 16.6667V6.66667L53.3333 20H43.3333C41.5 20 40 18.5 40 16.6667Z" fill="#D1D5DB"/>
</svg>
