<svg width="58" height="58" viewBox="0 0 58 58" fill="none" xmlns="http://www.w3.org/2000/svg">
<path d="M42.6667 37.6667H40.0333L39.1 36.7667C43.1 32.1 45.1667 25.7333 44.0333 18.9667C42.4667 9.70001 34.7333 2.30001 25.4 1.16668C11.3 -0.566657 -0.566656 11.3 1.16668 25.4C2.30001 34.7333 9.70001 42.4667 18.9667 44.0333C25.7333 45.1667 32.1 43.1 36.7667 39.1L37.6667 40.0333V42.6667L51.8333 56.8333C53.2 58.2 55.4333 58.2 56.8 56.8333C58.1667 55.4667 58.1667 53.2333 56.8 51.8667L42.6667 37.6667ZM22.6667 37.6667C14.3667 37.6667 7.66668 30.9667 7.66668 22.6667C7.66668 14.3667 14.3667 7.66668 22.6667 7.66668C30.9667 7.66668 37.6667 14.3667 37.6667 22.6667C37.6667 30.9667 30.9667 37.6667 22.6667 37.6667Z" fill="#D1D5DB"/>
</svg>
